<?xml version="1.0" encoding="UTF-8" standalone="no"?>
<!DOCTYPE svg PUBLIC "-//W3C//DTD SVG 1.1//EN"
 "http://www.w3.org/Graphics/SVG/1.1/DTD/svg11.dtd">
<!-- Generated by graphviz version 2.26.3 (20100126.1600)
 -->
<!-- Title: simple_hierarchy Pages: 1 -->
<svg width="1304pt" height="370pt"
 viewBox="0.00 0.00 1304.00 370.00" xmlns="http://www.w3.org/2000/svg" xmlns:xlink="http://www.w3.org/1999/xlink">
<g id="graph1" class="graph" transform="scale(1 1) rotate(0) translate(4 366)">
<title>simple_hierarchy</title>
<polygon fill="white" stroke="white" points="-4,5 -4,-366 1301,-366 1301,5 -4,5"/>
<g id="graph2" class="cluster"><title>cluster_clojure</title>
<polygon fill="none" stroke="blue" points="8,-148 8,-354 1288,-354 1288,-148 8,-148"/>
<text text-anchor="middle" x="648" y="-337.4" font-family="Times Roman,serif" font-size="14.00">clojure</text>
</g>
<g id="graph3" class="cluster"><title>cluster_java</title>
<polygon fill="none" stroke="red" points="490,-8 490,-140 834,-140 834,-8 490,-8"/>
<text text-anchor="middle" x="662" y="-123.4" font-family="Times Roman,serif" font-size="14.00">java</text>
</g>
<!-- battleships_loader -->
<g id="node1" class="node"><title>battleships_loader</title>
<ellipse fill="none" stroke="black" cx="363" cy="-174" rx="97.7889" ry="18.3848"/>
<text text-anchor="middle" x="363" y="-170.4" font-family="Times Roman,serif" font-size="14.00">battleships.loader</text>
</g>
<!-- battleships_engine_ShipPosition -->
<g id="node3" class="node"><title>battleships_engine_ShipPosition</title>
<ellipse fill="none" stroke="black" cx="662" cy="-88" rx="162.842" ry="18.3848"/>
<text text-anchor="middle" x="662" y="-84.4" font-family="Times Roman,serif" font-size="14.00">battleships.engine.ShipPosition</text>
</g>
<!-- battleships_loader&#45;&gt;battleships_engine_ShipPosition -->
<g id="edge2" class="edge"><title>battleships_loader&#45;&gt;battleships_engine_ShipPosition</title>
<path fill="none" stroke="black" d="M416.111,-158.724C465.638,-144.479 539.769,-123.157 593.682,-107.65"/>
<polygon fill="black" stroke="black" points="594.861,-110.953 603.503,-104.825 592.926,-104.226 594.861,-110.953"/>
</g>
<!-- battleships_engine -->
<g id="node6" class="node"><title>battleships_engine</title>
<ellipse fill="none" stroke="black" cx="662" cy="-285" rx="101.116" ry="18.3848"/>
<text text-anchor="middle" x="662" y="-281.4" font-family="Times Roman,serif" font-size="14.00">battleships.engine</text>
</g>
<!-- battleships_loader&#45;&gt;battleships_engine -->
<g id="edge28" class="edge"><title>battleships_loader&#45;&gt;battleships_engine</title>
<path fill="none" stroke="black" d="M436.028,-186.158C445.404,-189.87 454.376,-194.705 462,-201 483.764,-218.971 467.276,-241.259 490,-258 507.621,-270.982 529.035,-278.78 550.686,-283.289"/>
<polygon fill="black" stroke="black" points="550.167,-286.752 560.638,-285.135 551.445,-279.869 550.167,-286.752"/>
</g>
<!-- battleships_game -->
<g id="node14" class="node"><title>battleships_game</title>
<ellipse fill="none" stroke="black" cx="957" cy="-174" rx="94.7523" ry="18.3848"/>
<text text-anchor="middle" x="957" y="-170.4" font-family="Times Roman,serif" font-size="14.00">battleships.game</text>
</g>
<!-- battleships_loader&#45;&gt;battleships_game -->
<g id="edge12" class="edge"><title>battleships_loader&#45;&gt;battleships_game</title>
<path fill="none" stroke="black" d="M461.754,-174C569.563,-174 741.51,-174 851.798,-174"/>
<polygon fill="black" stroke="black" points="851.943,-177.5 861.943,-174 851.943,-170.5 851.943,-177.5"/>
</g>
<!-- java_io_PushbackReader -->
<g id="node22" class="node"><title>java_io_PushbackReader</title>
<ellipse fill="none" stroke="black" cx="662" cy="-34" rx="126.072" ry="18.3848"/>
<text text-anchor="middle" x="662" y="-30.4" font-family="Times Roman,serif" font-size="14.00">java.io.PushbackReader</text>
</g>
<!-- battleships_loader&#45;&gt;java_io_PushbackReader -->
<g id="edge24" class="edge"><title>battleships_loader&#45;&gt;java_io_PushbackReader</title>
<path fill="none" stroke="black" d="M377.234,-156.036C398.695,-130.341 441.969,-83.6954 490,-61 505.307,-53.7674 522.148,-48.4071 539.121,-44.4462"/>
<polygon fill="black" stroke="black" points="540.091,-47.8172 549.119,-42.2721 538.603,-40.977 540.091,-47.8172"/>
</g>
<!-- battleships_core -->
<g id="node4" class="node"><title>battleships_core</title>
<ellipse fill="none" stroke="black" cx="363" cy="-228" rx="87.889" ry="18.3848"/>
<text text-anchor="middle" x="363" y="-224.4" font-family="Times Roman,serif" font-size="14.00">battleships.core</text>
</g>
<!-- battleships_core&#45;&gt;battleships_engine_ShipPosition -->
<g id="edge18" class="edge"><title>battleships_core&#45;&gt;battleships_engine_ShipPosition</title>
<path fill="none" stroke="black" d="M433.229,-216.912C443.613,-213.074 453.62,-207.919 462,-201 483.764,-183.029 468.678,-162.493 490,-144 510.3,-126.393 536.246,-114.3 561.795,-106.002"/>
<polygon fill="black" stroke="black" points="563.024,-109.286 571.556,-103.003 560.969,-102.594 563.024,-109.286"/>
</g>
<!-- battleships_core&#45;&gt;battleships_engine -->
<g id="edge4" class="edge"><title>battleships_core&#45;&gt;battleships_engine</title>
<path fill="none" stroke="black" d="M418.439,-242.065C440.611,-247.436 466.435,-253.374 490,-258 516.695,-263.24 545.879,-268.133 572.503,-272.275"/>
<polygon fill="black" stroke="black" points="572.155,-275.763 582.571,-273.825 573.22,-268.844 572.155,-275.763"/>
</g>
<!-- battleships_board -->
<g id="node16" class="node"><title>battleships_board</title>
<ellipse fill="none" stroke="black" cx="1184" cy="-211" rx="94.9596" ry="18.3848"/>
<text text-anchor="middle" x="1184" y="-207.4" font-family="Times Roman,serif" font-size="14.00">battleships.board</text>
</g>
<!-- battleships_core&#45;&gt;battleships_board -->
<g id="edge16" class="edge"><title>battleships_core&#45;&gt;battleships_board</title>
<path fill="none" stroke="black" d="M421.796,-214.52C443.15,-210.254 467.547,-206.103 490,-204 601.118,-193.593 914.817,-201.913 1079.73,-207.307"/>
<polygon fill="black" stroke="black" points="1079.78,-210.81 1089.89,-207.641 1080.01,-203.814 1079.78,-210.81"/>
</g>
<!-- battleships_demo -->
<g id="node28" class="node"><title>battleships_demo</title>
<ellipse fill="none" stroke="black" cx="662" cy="-231" rx="94.7523" ry="18.3848"/>
<text text-anchor="middle" x="662" y="-227.4" font-family="Times Roman,serif" font-size="14.00">battleships.demo</text>
</g>
<!-- battleships_core&#45;&gt;battleships_demo -->
<g id="edge34" class="edge"><title>battleships_core&#45;&gt;battleships_demo</title>
<path fill="none" stroke="black" d="M451.496,-228.888C484.567,-229.22 522.444,-229.6 556.87,-229.945"/>
<polygon fill="black" stroke="black" points="556.921,-233.446 566.956,-230.046 556.991,-226.446 556.921,-233.446"/>
</g>
<!-- battleships_engine&#45;&gt;battleships_game -->
<g id="edge20" class="edge"><title>battleships_engine&#45;&gt;battleships_game</title>
<path fill="none" stroke="black" d="M755.499,-277.975C781.54,-273.986 809.413,-267.747 834,-258 869.91,-243.763 905.794,-217.538 929.455,-198.164"/>
<polygon fill="black" stroke="black" points="931.855,-200.72 937.294,-191.628 927.372,-195.344 931.855,-200.72"/>
</g>
<!-- battleships_engine&#45;&gt;battleships_board -->
<g id="edge14" class="edge"><title>battleships_engine&#45;&gt;battleships_board</title>
<path fill="none" stroke="black" d="M741.281,-273.761C837.238,-260.158 998.254,-237.332 1097.39,-223.278"/>
<polygon fill="black" stroke="black" points="1097.97,-226.731 1107.38,-221.862 1096.99,-219.8 1097.97,-226.731"/>
</g>
<!-- battleships_server -->
<g id="node7" class="node"><title>battleships_server</title>
<ellipse fill="none" stroke="black" cx="122" cy="-282" rx="98.9949" ry="18.3848"/>
<text text-anchor="middle" x="122" y="-278.4" font-family="Times Roman,serif" font-size="14.00">battleships.server</text>
</g>
<!-- battleships_server&#45;&gt;battleships_loader -->
<g id="edge8" class="edge"><title>battleships_server&#45;&gt;battleships_loader</title>
<path fill="none" stroke="black" d="M197.184,-270.239C208.117,-266.482 218.778,-261.529 228,-255 251.541,-238.332 240.6,-217.866 264,-201 269.813,-196.811 276.242,-193.271 282.952,-190.281"/>
<polygon fill="black" stroke="black" points="284.278,-193.52 292.243,-186.534 281.66,-187.028 284.278,-193.52"/>
</g>
<!-- battleships_server&#45;&gt;battleships_core -->
<g id="edge30" class="edge"><title>battleships_server&#45;&gt;battleships_core</title>
<path fill="none" stroke="black" d="M184.691,-267.953C217.948,-260.501 258.905,-251.324 293.175,-243.645"/>
<polygon fill="black" stroke="black" points="294.122,-247.02 303.115,-241.418 292.592,-240.189 294.122,-247.02"/>
</g>
<!-- battleships_server&#45;&gt;battleships_engine -->
<g id="edge32" class="edge"><title>battleships_server&#45;&gt;battleships_engine</title>
<path fill="none" stroke="black" d="M216.69,-276.682C232.484,-275.982 248.701,-275.377 264,-275 351.973,-272.833 374.027,-272.802 462,-275 492.522,-275.763 525.64,-277.179 555.981,-278.71"/>
<polygon fill="black" stroke="black" points="555.99,-282.215 566.156,-279.234 556.349,-275.225 555.99,-282.215"/>
</g>
<!-- battleships_view -->
<g id="node9" class="node"><title>battleships_view</title>
<ellipse fill="none" stroke="black" cx="363" cy="-302" rx="91.2168" ry="18.3848"/>
<text text-anchor="middle" x="363" y="-298.4" font-family="Times Roman,serif" font-size="14.00">battleships.view</text>
</g>
<!-- battleships_server&#45;&gt;battleships_view -->
<g id="edge6" class="edge"><title>battleships_server&#45;&gt;battleships_view</title>
<path fill="none" stroke="black" d="M212.082,-289.476C230.668,-291.018 250.287,-292.646 269.008,-294.2"/>
<polygon fill="black" stroke="black" points="268.748,-297.69 279.003,-295.029 269.327,-290.714 268.748,-297.69"/>
</g>
<!-- battleships_client -->
<g id="node11" class="node"><title>battleships_client</title>
<ellipse fill="none" stroke="black" cx="122" cy="-228" rx="94.7523" ry="18.3848"/>
<text text-anchor="middle" x="122" y="-224.4" font-family="Times Roman,serif" font-size="14.00">battleships.client</text>
</g>
<!-- battleships_client&#45;&gt;battleships_loader -->
<g id="edge22" class="edge"><title>battleships_client&#45;&gt;battleships_loader</title>
<path fill="none" stroke="black" d="M183.438,-214.234C216.059,-206.925 256.351,-197.896 290.497,-190.245"/>
<polygon fill="black" stroke="black" points="291.423,-193.625 300.416,-188.023 289.893,-186.794 291.423,-193.625"/>
</g>
<!-- battleships_client&#45;&gt;battleships_core -->
<g id="edge10" class="edge"><title>battleships_client&#45;&gt;battleships_core</title>
<path fill="none" stroke="black" d="M217.25,-228C232.683,-228 248.696,-228 264.211,-228"/>
<polygon fill="black" stroke="black" points="264.325,-231.5 274.325,-228 264.325,-224.5 264.325,-231.5"/>
</g>
<!-- battleships_game&#45;&gt;battleships_board -->
<g id="edge26" class="edge"><title>battleships_game&#45;&gt;battleships_board</title>
<path fill="none" stroke="black" d="M1029.14,-185.758C1052.2,-189.516 1077.89,-193.705 1101.63,-197.573"/>
<polygon fill="black" stroke="black" points="1101.23,-201.055 1111.66,-199.209 1102.36,-194.146 1101.23,-201.055"/>
</g>
<!-- battleships_monkey -->
<g id="node30" class="node"><title>battleships_monkey</title>
<ellipse fill="none" stroke="black" cx="122" cy="-174" rx="106.066" ry="18.3848"/>
<text text-anchor="middle" x="122" y="-170.4" font-family="Times Roman,serif" font-size="14.00">battleships.monkey</text>
</g>
</g>
</svg>
